<?xml version="1.0" encoding="UTF-8" standalone="no"?>
<!DOCTYPE svg PUBLIC "-//W3C//DTD SVG 1.1//EN"
 "http://www.w3.org/Graphics/SVG/1.1/DTD/svg11.dtd">
<!-- Generated by graphviz version 14.0.5 (20251129.0259)
 -->
<!-- Title: core.config.Config.get Pages: 1 -->
<svg width="435pt" height="260pt"
 viewBox="0.00 0.00 435.00 260.00" xmlns="http://www.w3.org/2000/svg" xmlns:xlink="http://www.w3.org/1999/xlink">
<g id="graph0" class="graph" transform="scale(1 1) rotate(0) translate(4 255.94)">
<title>core.config.Config.get</title>
<!-- Node1 -->
<g id="Node000001" class="node">
<title>Node1</title>
<g id="a_Node000001"><a xlink:title=" ">
<polygon fill="#999999" stroke="#666666" points="426.75,-143.75 305,-143.75 305,-123 426.75,-123 426.75,-143.75"/>
<text xml:space="preserve" text-anchor="middle" x="365.88" y="-130.25" font-family="Helvetica,sans-Serif" font-size="10.00">core.config.Config.get</text>
</a>
</g>
</g>
<!-- Node2 -->
<g id="Node000002" class="node">
<title>Node2</title>
<g id="a_Node000002"><a xlink:href="classcore_1_1config_1_1Config.html#ac5be92e39bb246739876929137a505ba" target="_top" xlink:title=" ">
<polygon fill="white" stroke="#666666" points="106,-202.12 0,-202.12 0,-168.62 106,-168.62 106,-202.12"/>
<text xml:space="preserve" text-anchor="start" x="8" y="-188.62" font-family="Helvetica,sans-Serif" font-size="10.00">core.config.Config.</text>
<text xml:space="preserve" text-anchor="middle" x="53" y="-175.88" font-family="Helvetica,sans-Serif" font-size="10.00">_load_all_configs</text>
</a>
</g>
</g>
<!-- Node1&#45;&gt;Node2 -->
<g id="edge1_Node000001_Node000002" class="edge">
<title>Node1&#45;&gt;Node2</title>
<g id="a_edge1_Node000001_Node000002"><a xlink:title=" ">
<path fill="none" stroke="#63b8ff" d="M353.51,-153.6C338.1,-178.7 307.97,-220.3 269,-237.38 217.3,-260.03 196.45,-252.26 142,-237.38 117.18,-230.59 92.24,-214.81 75.29,-202.4"/>
<polygon fill="#63b8ff" stroke="#63b8ff" points="356.36,-155.66 358.43,-145.27 350.33,-152.1 356.36,-155.66"/>
</a>
</g>
</g>
<!-- Node3 -->
<g id="Node000003" class="node">
<title>Node3</title>
<g id="a_Node000003"><a xlink:href="classcore_1_1config_1_1Config.html#a9f1ba4de42dc9cc90e5f572e7f31c077" target="_top" xlink:title=" ">
<polygon fill="white" stroke="#666666" points="258.5,-228.12 152.5,-228.12 152.5,-194.62 258.5,-194.62 258.5,-228.12"/>
<text xml:space="preserve" text-anchor="start" x="160.5" y="-214.62" font-family="Helvetica,sans-Serif" font-size="10.00">core.config.Config.</text>
<text xml:space="preserve" text-anchor="middle" x="205.5" y="-201.88" font-family="Helvetica,sans-Serif" font-size="10.00">_validate_agents</text>
</a>
</g>
</g>
<!-- Node1&#45;&gt;Node3 -->
<g id="edge2_Node000001_Node000003" class="edge">
<title>Node1&#45;&gt;Node3</title>
<g id="a_edge2_Node000001_Node000003"><a xlink:title=" ">
<path fill="none" stroke="#63b8ff" d="M336.68,-149.66C317.79,-160.33 292.21,-174.29 269,-185.38 262.74,-188.36 256.05,-191.36 249.46,-194.19"/>
<polygon fill="#63b8ff" stroke="#63b8ff" points="338.15,-152.85 345.11,-144.86 334.69,-146.76 338.15,-152.85"/>
</a>
</g>
</g>
<!-- Node4 -->
<g id="Node000004" class="node">
<title>Node4</title>
<g id="a_Node000004"><a xlink:href="classcore_1_1config_1_1Config.html#a5fa50f5a040bcf962571debbfa0e3219" target="_top" xlink:title=" ">
<polygon fill="white" stroke="#666666" points="261.5,-176.12 149.5,-176.12 149.5,-142.62 261.5,-142.62 261.5,-176.12"/>
<text xml:space="preserve" text-anchor="start" x="157.5" y="-162.62" font-family="Helvetica,sans-Serif" font-size="10.00">core.config.Config.</text>
<text xml:space="preserve" text-anchor="middle" x="205.5" y="-149.88" font-family="Helvetica,sans-Serif" font-size="10.00">_validate_providers</text>
</a>
</g>
</g>
<!-- Node1&#45;&gt;Node4 -->
<g id="edge4_Node000001_Node000004" class="edge">
<title>Node1&#45;&gt;Node4</title>
<g id="a_edge4_Node000001_Node000004"><a xlink:title=" ">
<path fill="none" stroke="#63b8ff" d="M293.26,-145.13C282.76,-146.86 272.09,-148.61 261.98,-150.27"/>
<polygon fill="#63b8ff" stroke="#63b8ff" points="293.75,-148.6 303.05,-143.52 292.62,-141.69 293.75,-148.6"/>
</a>
</g>
</g>
<!-- Node5 -->
<g id="Node000005" class="node">
<title>Node5</title>
<g id="a_Node000005"><a xlink:href="classcore_1_1config_1_1Config.html#abb4a854129d2730f67a7bc3ce19ce16e" target="_top" xlink:title=" ">
<polygon fill="white" stroke="#666666" points="266.38,-124.12 144.62,-124.12 144.62,-90.62 266.38,-90.62 266.38,-124.12"/>
<text xml:space="preserve" text-anchor="start" x="152.62" y="-110.62" font-family="Helvetica,sans-Serif" font-size="10.00">core.config.Config.get</text>
<text xml:space="preserve" text-anchor="middle" x="205.5" y="-97.88" font-family="Helvetica,sans-Serif" font-size="10.00">_agent_config</text>
</a>
</g>
</g>
<!-- Node1&#45;&gt;Node5 -->
<g id="edge6_Node000001_Node000005" class="edge">
<title>Node1&#45;&gt;Node5</title>
<g id="a_edge6_Node000001_Node000005"><a xlink:title=" ">
<path fill="none" stroke="#63b8ff" d="M293.35,-121.63C284.43,-120.17 275.38,-118.68 266.66,-117.25"/>
<polygon fill="#63b8ff" stroke="#63b8ff" points="292.62,-125.06 303.05,-123.23 293.75,-118.15 292.62,-125.06"/>
</a>
</g>
</g>
<!-- Node6 -->
<g id="Node000006" class="node">
<title>Node6</title>
<g id="a_Node000006"><a xlink:href="classcore_1_1config_1_1Config.html#adf7ac49a1f5155a422a203324af6ce72" target="_top" xlink:title=" ">
<polygon fill="white" stroke="#666666" points="266.38,-72.12 144.62,-72.12 144.62,-38.62 266.38,-38.62 266.38,-72.12"/>
<text xml:space="preserve" text-anchor="start" x="152.62" y="-58.62" font-family="Helvetica,sans-Serif" font-size="10.00">core.config.Config.get</text>
<text xml:space="preserve" text-anchor="middle" x="205.5" y="-45.88" font-family="Helvetica,sans-Serif" font-size="10.00">_tool_blacklist</text>
</a>
</g>
</g>
<!-- Node1&#45;&gt;Node6 -->
<g id="edge7_Node000001_Node000006" class="edge">
<title>Node1&#45;&gt;Node6</title>
<g id="a_edge7_Node000001_Node000006"><a xlink:title=" ">
<path fill="none" stroke="#63b8ff" d="M336.68,-117.09C317.79,-106.42 292.21,-92.46 269,-81.38 262.74,-78.39 256.05,-75.39 249.46,-72.56"/>
<polygon fill="#63b8ff" stroke="#63b8ff" points="334.69,-119.99 345.11,-121.89 338.15,-113.9 334.69,-119.99"/>
</a>
</g>
</g>
<!-- Node7 -->
<g id="Node000007" class="node">
<title>Node7</title>
<g id="a_Node000007"><a xlink:href="classcore_1_1config_1_1Config.html#ada9632580f9c8bcc926c131b38ddacae" target="_top" xlink:title=" ">
<polygon fill="white" stroke="#666666" points="269,-20.75 142,-20.75 142,0 269,0 269,-20.75"/>
<text xml:space="preserve" text-anchor="middle" x="205.5" y="-7.25" font-family="Helvetica,sans-Serif" font-size="10.00">core.config.Config.load</text>
</a>
</g>
</g>
<!-- Node1&#45;&gt;Node7 -->
<g id="edge8_Node000001_Node000007" class="edge">
<title>Node1&#45;&gt;Node7</title>
<g id="a_edge8_Node000001_Node000007"><a xlink:title=" ">
<path fill="none" stroke="#63b8ff" d="M351.62,-113.51C334.99,-90.09 304.33,-51.55 269,-29.38 263.91,-26.18 258.25,-23.49 252.47,-21.24"/>
<polygon fill="#63b8ff" stroke="#63b8ff" points="348.62,-115.33 357.19,-121.57 354.38,-111.35 348.62,-115.33"/>
</a>
</g>
</g>
<!-- Node3&#45;&gt;Node2 -->
<g id="edge3_Node000003_Node000002" class="edge">
<title>Node3&#45;&gt;Node2</title>
<g id="a_edge3_Node000003_Node000002"><a xlink:title=" ">
<path fill="none" stroke="#63b8ff" d="M141.29,-200.46C129.67,-198.45 117.64,-196.37 106.38,-194.42"/>
<polygon fill="#63b8ff" stroke="#63b8ff" points="140.34,-203.84 150.79,-202.1 141.54,-196.95 140.34,-203.84"/>
</a>
</g>
</g>
<!-- Node4&#45;&gt;Node2 -->
<g id="edge5_Node000004_Node000002" class="edge">
<title>Node4&#45;&gt;Node2</title>
<g id="a_edge5_Node000004_Node000002"><a xlink:title=" ">
<path fill="none" stroke="#63b8ff" d="M138.25,-170.82C127.51,-172.68 116.52,-174.57 106.18,-176.36"/>
<polygon fill="#63b8ff" stroke="#63b8ff" points="138.56,-174.32 147.82,-169.17 137.37,-167.42 138.56,-174.32"/>
</a>
</g>
</g>
<!-- Node7&#45;&gt;Node2 -->
<g id="edge9_Node000007_Node000002" class="edge">
<title>Node7&#45;&gt;Node2</title>
<g id="a_edge9_Node000007_Node000002"><a xlink:title=" ">
<path fill="none" stroke="#63b8ff" d="M145.56,-26.75C144.33,-27.58 143.14,-28.46 142,-29.38 95.19,-66.93 68.94,-136.53 58.86,-168.51"/>
<polygon fill="#63b8ff" stroke="#63b8ff" points="147.2,-29.84 154.22,-21.9 143.79,-23.73 147.2,-29.84"/>
</a>
</g>
</g>
</g>
</svg>
