<?xml version="1.0" encoding="UTF-8" standalone="no"?>
<!DOCTYPE svg PUBLIC "-//W3C//DTD SVG 1.1//EN"
 "http://www.w3.org/Graphics/SVG/1.1/DTD/svg11.dtd">
<!-- Generated by graphviz version 14.0.5 (20251129.0259)
 -->
<!-- Title: axe.CollaborativeSession.start_session Pages: 1 -->
<svg width="1176pt" height="767pt"
 viewBox="0.00 0.00 1176.00 767.00" xmlns="http://www.w3.org/2000/svg" xmlns:xlink="http://www.w3.org/1999/xlink">
<g id="graph0" class="graph" transform="scale(1 1) rotate(0) translate(4 762.5)">
<title>axe.CollaborativeSession.start_session</title>
<!-- Node1 -->
<g id="Node000001" class="node">
<title>Node1</title>
<g id="a_Node000001"><a xlink:title=" ">
<polygon fill="#999999" stroke="#666666" points="164.5,-359.5 0,-359.5 0,-326 164.5,-326 164.5,-359.5"/>
<text xml:space="preserve" text-anchor="start" x="8" y="-346" font-family="Helvetica,sans-Serif" font-size="10.00">axe.CollaborativeSession.start</text>
<text xml:space="preserve" text-anchor="middle" x="82.25" y="-333.25" font-family="Helvetica,sans-Serif" font-size="10.00">_session</text>
</a>
</g>
</g>
<!-- Node2 -->
<g id="Node000002" class="node">
<title>Node2</title>
<g id="a_Node000002"><a xlink:href="classaxe_1_1CollaborativeSession.html#a2c0fb59b4465a4f8514630602fa942f8" target="_top" xlink:title=" ">
<polygon fill="white" stroke="#666666" points="353.75,-385.5 211.75,-385.5 211.75,-352 353.75,-352 353.75,-385.5"/>
<text xml:space="preserve" text-anchor="start" x="219.75" y="-372" font-family="Helvetica,sans-Serif" font-size="10.00">axe.CollaborativeSession.</text>
<text xml:space="preserve" text-anchor="middle" x="282.75" y="-359.25" font-family="Helvetica,sans-Serif" font-size="10.00">_run_collaboration_loop</text>
</a>
</g>
</g>
<!-- Node1&#45;&gt;Node2 -->
<g id="edge1_Node000001_Node000002" class="edge">
<title>Node1&#45;&gt;Node2</title>
<g id="a_edge1_Node000001_Node000002"><a xlink:title=" ">
<path fill="none" stroke="#63b8ff" d="M164.85,-353.44C176.52,-354.97 188.52,-356.54 200.19,-358.07"/>
<polygon fill="#63b8ff" stroke="#63b8ff" points="199.38,-361.49 209.75,-359.32 200.29,-354.55 199.38,-361.49"/>
</a>
</g>
</g>
<!-- Node26 -->
<g id="Node000026" class="node">
<title>Node26</title>
<g id="a_Node000026"><a xlink:href="classaxe_1_1CollaborativeSession.html#a501edaa48b72d90cc3af128953133578" target="_top" xlink:title=" ">
<polygon fill="white" stroke="#666666" points="365,-333.5 200.5,-333.5 200.5,-300 365,-300 365,-333.5"/>
<text xml:space="preserve" text-anchor="start" x="208.5" y="-320" font-family="Helvetica,sans-Serif" font-size="10.00">axe.CollaborativeSession.print</text>
<text xml:space="preserve" text-anchor="middle" x="282.75" y="-307.25" font-family="Helvetica,sans-Serif" font-size="10.00">_banner</text>
</a>
</g>
</g>
<!-- Node1&#45;&gt;Node26 -->
<g id="edge30_Node000001_Node000026" class="edge">
<title>Node1&#45;&gt;Node26</title>
<g id="a_edge30_Node000001_Node000026"><a xlink:title=" ">
<path fill="none" stroke="#63b8ff" d="M164.85,-332.06C172.77,-331.02 180.85,-329.97 188.87,-328.92"/>
<polygon fill="#63b8ff" stroke="#63b8ff" points="189.19,-332.4 198.65,-327.63 188.28,-325.46 189.19,-332.4"/>
</a>
</g>
</g>
<!-- Node3 -->
<g id="Node000003" class="node">
<title>Node3</title>
<g id="a_Node000003"><a xlink:href="classaxe_1_1CollaborativeSession.html#ab9b4446c5f6869de5d98eb51d3ab44ef" target="_top" xlink:title=" ">
<polygon fill="white" stroke="#666666" points="559.12,-758.5 417.12,-758.5 417.12,-725 559.12,-725 559.12,-758.5"/>
<text xml:space="preserve" text-anchor="start" x="425.12" y="-745" font-family="Helvetica,sans-Serif" font-size="10.00">axe.CollaborativeSession.</text>
<text xml:space="preserve" text-anchor="middle" x="488.12" y="-732.25" font-family="Helvetica,sans-Serif" font-size="10.00">_end_session</text>
</a>
</g>
</g>
<!-- Node2&#45;&gt;Node3 -->
<g id="edge2_Node000002_Node000003" class="edge">
<title>Node2&#45;&gt;Node3</title>
<g id="a_edge2_Node000002_Node000003"><a xlink:title=" ">
<path fill="none" stroke="#63b8ff" d="M284.57,-385.62C288.14,-440.36 306.75,-615.05 401,-710.75 403.82,-713.61 406.92,-716.21 410.22,-718.57"/>
<polygon fill="#63b8ff" stroke="#63b8ff" points="408.34,-721.52 418.69,-723.81 412.03,-715.57 408.34,-721.52"/>
</a>
</g>
</g>
<!-- Node4 -->
<g id="Node000004" class="node">
<title>Node4</title>
<g id="a_Node000004"><a xlink:href="classaxe_1_1CollaborativeSession.html#ab9a5670ebe43be16b93f2fc7cad0108e" target="_top" xlink:title=" ">
<polygon fill="white" stroke="#666666" points="782.5,-735.5 640.5,-735.5 640.5,-702 782.5,-702 782.5,-735.5"/>
<text xml:space="preserve" text-anchor="start" x="648.5" y="-722" font-family="Helvetica,sans-Serif" font-size="10.00">axe.CollaborativeSession.</text>
<text xml:space="preserve" text-anchor="middle" x="711.5" y="-709.25" font-family="Helvetica,sans-Serif" font-size="10.00">_time_remaining</text>
</a>
</g>
</g>
<!-- Node2&#45;&gt;Node4 -->
<g id="edge21_Node000002_Node000004" class="edge">
<title>Node2&#45;&gt;Node4</title>
<g id="a_edge21_Node000002_Node000004"><a xlink:title=" ">
<path fill="none" stroke="#63b8ff" d="M284.48,-385.93C287.73,-439.11 305.42,-602.04 401,-677.75 435.27,-704.9 549.25,-714.11 628.87,-717.21"/>
<polygon fill="#63b8ff" stroke="#63b8ff" points="628.72,-720.71 638.84,-717.57 628.97,-713.71 628.72,-720.71"/>
</a>
</g>
</g>
<!-- Node5 -->
<g id="Node000005" class="node">
<title>Node5</title>
<g id="a_Node000005"><a xlink:href="classaxe_1_1CollaborativeSession.html#ac268af6bc8cdd91f1868a817b5c5de1b" target="_top" xlink:title=" ">
<polygon fill="white" stroke="#666666" points="575.25,-668.5 401,-668.5 401,-635 575.25,-635 575.25,-668.5"/>
<text xml:space="preserve" text-anchor="start" x="409" y="-655" font-family="Helvetica,sans-Serif" font-size="10.00">axe.CollaborativeSession.</text>
<text xml:space="preserve" text-anchor="middle" x="488.12" y="-642.25" font-family="Helvetica,sans-Serif" font-size="10.00">_format_conversation_for_agent</text>
</a>
</g>
</g>
<!-- Node2&#45;&gt;Node5 -->
<g id="edge4_Node000002_Node000005" class="edge">
<title>Node2&#45;&gt;Node5</title>
<g id="a_edge4_Node000002_Node000005"><a xlink:title=" ">
<path fill="none" stroke="#63b8ff" d="M286.53,-385.72C294.93,-431.54 324.36,-558.8 401,-625.75 402.09,-626.7 403.22,-627.62 404.37,-628.51"/>
<polygon fill="#63b8ff" stroke="#63b8ff" points="402.21,-631.28 412.49,-633.82 406.05,-625.42 402.21,-631.28"/>
</a>
</g>
</g>
<!-- Node6 -->
<g id="Node000006" class="node">
<title>Node6</title>
<g id="a_Node000006"><a xlink:href="classaxe_1_1CollaborativeSession.html#ae5b0476285af0c83e3e1910c1a60e5f6" target="_top" xlink:title=" ">
<polygon fill="white" stroke="#666666" points="574.12,-616.5 402.12,-616.5 402.12,-583 574.12,-583 574.12,-616.5"/>
<text xml:space="preserve" text-anchor="start" x="410.12" y="-603" font-family="Helvetica,sans-Serif" font-size="10.00">axe.CollaborativeSession.</text>
<text xml:space="preserve" text-anchor="middle" x="488.12" y="-590.25" font-family="Helvetica,sans-Serif" font-size="10.00">_get_system_prompt_for_collab</text>
</a>
</g>
</g>
<!-- Node2&#45;&gt;Node6 -->
<g id="edge5_Node000002_Node000006" class="edge">
<title>Node2&#45;&gt;Node6</title>
<g id="a_edge5_Node000002_Node000006"><a xlink:title=" ">
<path fill="none" stroke="#63b8ff" d="M288.73,-385.96C301.01,-425.32 336.52,-522.43 401,-573.75 402.34,-574.81 403.72,-575.83 405.13,-576.81"/>
<polygon fill="#63b8ff" stroke="#63b8ff" points="403.27,-579.78 413.65,-581.91 406.87,-573.77 403.27,-579.78"/>
</a>
</g>
</g>
<!-- Node7 -->
<g id="Node000007" class="node">
<title>Node7</title>
<g id="a_Node000007"><a xlink:href="classaxe_1_1CollaborativeSession.html#a64377593b620e4449351bb066f04456d" target="_top" xlink:title=" ">
<polygon fill="white" stroke="#666666" points="559.12,-564.5 417.12,-564.5 417.12,-531 559.12,-531 559.12,-564.5"/>
<text xml:space="preserve" text-anchor="start" x="425.12" y="-551" font-family="Helvetica,sans-Serif" font-size="10.00">axe.CollaborativeSession.</text>
<text xml:space="preserve" text-anchor="middle" x="488.12" y="-538.25" font-family="Helvetica,sans-Serif" font-size="10.00">_handle_break_request</text>
</a>
</g>
</g>
<!-- Node2&#45;&gt;Node7 -->
<g id="edge6_Node000002_Node000007" class="edge">
<title>Node2&#45;&gt;Node7</title>
<g id="a_edge6_Node000002_Node000007"><a xlink:title=" ">
<path fill="none" stroke="#63b8ff" d="M292.16,-385.8C308.62,-417.41 348.15,-485.2 401,-521.75 402.83,-523.02 404.72,-524.22 406.67,-525.37"/>
<polygon fill="#63b8ff" stroke="#63b8ff" points="404.92,-528.41 415.41,-529.94 408.17,-522.2 404.92,-528.41"/>
</a>
</g>
</g>
<!-- Node8 -->
<g id="Node000008" class="node">
<title>Node8</title>
<g id="a_Node000008"><a xlink:href="classaxe_1_1CollaborativeSession.html#a2163cb254c21db6f140ee3fbde93af7d" target="_top" xlink:title=" ">
<polygon fill="white" stroke="#666666" points="559.12,-123.5 417.12,-123.5 417.12,-90 559.12,-90 559.12,-123.5"/>
<text xml:space="preserve" text-anchor="start" x="425.12" y="-110" font-family="Helvetica,sans-Serif" font-size="10.00">axe.CollaborativeSession.</text>
<text xml:space="preserve" text-anchor="middle" x="488.12" y="-97.25" font-family="Helvetica,sans-Serif" font-size="10.00">_handle_cognitive_tokens</text>
</a>
</g>
</g>
<!-- Node2&#45;&gt;Node8 -->
<g id="edge7_Node000002_Node000008" class="edge">
<title>Node2&#45;&gt;Node8</title>
<g id="a_edge7_Node000002_Node000008"><a xlink:title=" ">
<path fill="none" stroke="#63b8ff" d="M354,-352.33C358.06,-349.61 361.79,-346.44 365,-342.75 427.11,-271.27 338.3,-203.71 401,-132.75 402.95,-130.55 405.07,-128.53 407.34,-126.68"/>
<polygon fill="#63b8ff" stroke="#63b8ff" points="409.13,-129.69 415.46,-121.19 405.21,-123.89 409.13,-129.69"/>
</a>
</g>
</g>
<!-- Node9 -->
<g id="Node000009" class="node">
<title>Node9</title>
<g id="a_Node000009"><a xlink:href="namespaceaxe.html#a5387f652eb28eecb3bec22654aa3e40d" target="_top" xlink:title=" ">
<polygon fill="white" stroke="#666666" points="777.62,-117.12 645.38,-117.12 645.38,-96.38 777.62,-96.38 777.62,-117.12"/>
<text xml:space="preserve" text-anchor="middle" x="711.5" y="-103.62" font-family="Helvetica,sans-Serif" font-size="10.00">axe.detect_agent_token</text>
</a>
</g>
</g>
<!-- Node2&#45;&gt;Node9 -->
<g id="edge29_Node000002_Node000009" class="edge">
<title>Node2&#45;&gt;Node9</title>
<g id="a_edge29_Node000002_Node000009"><a xlink:title=" ">
<path fill="none" stroke="#63b8ff" d="M354.14,-352.45C358.17,-349.7 361.86,-346.49 365,-342.75 440.61,-252.76 312.41,-158 401,-80.75 480.17,-11.71 618.07,-62.8 679.47,-91.17"/>
<polygon fill="#63b8ff" stroke="#63b8ff" points="677.77,-94.24 688.31,-95.35 680.77,-87.91 677.77,-94.24"/>
</a>
</g>
</g>
<!-- Node10 -->
<g id="Node000010" class="node">
<title>Node10</title>
<g id="a_Node000010"><a xlink:href="classaxe_1_1CollaborativeSession.html#adfdeaf4031f6e214d05e21a96d24755a" target="_top" xlink:title=" ">
<polygon fill="white" stroke="#666666" points="570,-408.5 406.25,-408.5 406.25,-375 570,-375 570,-408.5"/>
<text xml:space="preserve" text-anchor="start" x="414.25" y="-395" font-family="Helvetica,sans-Serif" font-size="10.00">axe.CollaborativeSession.</text>
<text xml:space="preserve" text-anchor="middle" x="488.12" y="-382.25" font-family="Helvetica,sans-Serif" font-size="10.00">_handle_emergency_message</text>
</a>
</g>
</g>
<!-- Node2&#45;&gt;Node10 -->
<g id="edge9_Node000002_Node000010" class="edge">
<title>Node2&#45;&gt;Node10</title>
<g id="a_edge9_Node000002_Node000010"><a xlink:title=" ">
<path fill="none" stroke="#63b8ff" d="M354.02,-376.7C367.12,-378.18 380.99,-379.75 394.63,-381.29"/>
<polygon fill="#63b8ff" stroke="#63b8ff" points="394.18,-384.76 404.51,-382.41 394.97,-377.81 394.18,-384.76"/>
</a>
</g>
</g>
<!-- Node11 -->
<g id="Node000011" class="node">
<title>Node11</title>
<g id="a_Node000011"><a xlink:href="classaxe_1_1CollaborativeSession.html#afb29c1f9e386b7501a35b18e4d4a57cd" target="_top" xlink:title=" ">
<polygon fill="white" stroke="#666666" points="569.62,-512.5 406.62,-512.5 406.62,-479 569.62,-479 569.62,-512.5"/>
<text xml:space="preserve" text-anchor="start" x="414.62" y="-499" font-family="Helvetica,sans-Serif" font-size="10.00">axe.CollaborativeSession.</text>
<text xml:space="preserve" text-anchor="middle" x="488.12" y="-486.25" font-family="Helvetica,sans-Serif" font-size="10.00">_handle_github_review_pause</text>
</a>
</g>
</g>
<!-- Node2&#45;&gt;Node11 -->
<g id="edge10_Node000002_Node000011" class="edge">
<title>Node2&#45;&gt;Node11</title>
<g id="a_edge10_Node000002_Node000011"><a xlink:title=" ">
<path fill="none" stroke="#63b8ff" d="M299.16,-385.89C320.13,-408.23 359.79,-447.12 401,-469.75 403.82,-471.3 406.75,-472.77 409.75,-474.16"/>
<polygon fill="#63b8ff" stroke="#63b8ff" points="408.19,-477.3 418.76,-478 410.93,-470.86 408.19,-477.3"/>
</a>
</g>
</g>
<!-- Node17 -->
<g id="Node000017" class="node">
<title>Node17</title>
<g id="a_Node000017"><a xlink:href="classaxe_1_1CollaborativeSession.html#af1293714188297ae8b5cbb4bbba7af67" target="_top" xlink:title=" ">
<polygon fill="white" stroke="#666666" points="559.12,-460.5 417.12,-460.5 417.12,-427 559.12,-427 559.12,-460.5"/>
<text xml:space="preserve" text-anchor="start" x="425.12" y="-447" font-family="Helvetica,sans-Serif" font-size="10.00">axe.CollaborativeSession.</text>
<text xml:space="preserve" text-anchor="middle" x="488.12" y="-434.25" font-family="Helvetica,sans-Serif" font-size="10.00">_handle_spawn_request</text>
</a>
</g>
</g>
<!-- Node2&#45;&gt;Node17 -->
<g id="edge16_Node000002_Node000017" class="edge">
<title>Node2&#45;&gt;Node17</title>
<g id="a_edge16_Node000002_Node000017"><a xlink:title=" ">
<path fill="none" stroke="#63b8ff" d="M322.17,-385.98C344.88,-395.87 374.32,-408.18 401,-417.75 406.06,-419.57 411.32,-421.36 416.63,-423.12"/>
<polygon fill="#63b8ff" stroke="#63b8ff" points="415.53,-426.44 426.12,-426.18 417.68,-419.78 415.53,-426.44"/>
</a>
</g>
</g>
<!-- Node19 -->
<g id="Node000019" class="node">
<title>Node19</title>
<g id="a_Node000019"><a xlink:href="classaxe_1_1CollaborativeSession.html#af7d2acc6e00abc418359198dfe4b019a" target="_top" xlink:title=" ">
<polygon fill="white" stroke="#666666" points="559.12,-279.5 417.12,-279.5 417.12,-246 559.12,-246 559.12,-279.5"/>
<text xml:space="preserve" text-anchor="start" x="425.12" y="-266" font-family="Helvetica,sans-Serif" font-size="10.00">axe.CollaborativeSession.</text>
<text xml:space="preserve" text-anchor="middle" x="488.12" y="-253.25" font-family="Helvetica,sans-Serif" font-size="10.00">_print_status</text>
</a>
</g>
</g>
<!-- Node2&#45;&gt;Node19 -->
<g id="edge18_Node000002_Node000019" class="edge">
<title>Node2&#45;&gt;Node19</title>
<g id="a_edge18_Node000002_Node000019"><a xlink:title=" ">
<path fill="none" stroke="#63b8ff" d="M350.39,-351.67C355.56,-349.1 360.51,-346.14 365,-342.75 388.03,-325.38 377.83,-305.93 401,-288.75 402.99,-287.28 405.06,-285.89 407.2,-284.57"/>
<polygon fill="#63b8ff" stroke="#63b8ff" points="408.47,-287.86 415.6,-280.02 405.14,-281.7 408.47,-287.86"/>
</a>
</g>
</g>
<!-- Node20 -->
<g id="Node000020" class="node">
<title>Node20</title>
<g id="a_Node000020"><a xlink:href="classaxe_1_1CollaborativeSession.html#a041ba9ec847ef00ec022b44ad2c5fd88" target="_top" xlink:title=" ">
<polygon fill="white" stroke="#666666" points="559.12,-227.5 417.12,-227.5 417.12,-194 559.12,-194 559.12,-227.5"/>
<text xml:space="preserve" text-anchor="start" x="425.12" y="-214" font-family="Helvetica,sans-Serif" font-size="10.00">axe.CollaborativeSession.</text>
<text xml:space="preserve" text-anchor="middle" x="488.12" y="-201.25" font-family="Helvetica,sans-Serif" font-size="10.00">_show_break_requests</text>
</a>
</g>
</g>
<!-- Node2&#45;&gt;Node20 -->
<g id="edge19_Node000002_Node000020" class="edge">
<title>Node2&#45;&gt;Node20</title>
<g id="a_edge19_Node000002_Node000020"><a xlink:title=" ">
<path fill="none" stroke="#63b8ff" d="M353.36,-351.73C357.58,-349.15 361.51,-346.18 365,-342.75 400.49,-307.88 365.22,-271.32 401,-236.75 402.87,-234.94 404.86,-233.26 406.95,-231.69"/>
<polygon fill="#63b8ff" stroke="#63b8ff" points="408.81,-234.66 415.38,-226.36 405.06,-228.75 408.81,-234.66"/>
</a>
</g>
</g>
<!-- Node21 -->
<g id="Node000021" class="node">
<title>Node21</title>
<g id="a_Node000021"><a xlink:href="classaxe_1_1CollaborativeSession.html#a3e34c26c0de8010ad5878ed3886ee1c9" target="_top" xlink:title=" ">
<polygon fill="white" stroke="#666666" points="564,-175.5 412.25,-175.5 412.25,-142 564,-142 564,-175.5"/>
<text xml:space="preserve" text-anchor="start" x="420.25" y="-162" font-family="Helvetica,sans-Serif" font-size="10.00">axe.CollaborativeSession.</text>
<text xml:space="preserve" text-anchor="middle" x="488.12" y="-149.25" font-family="Helvetica,sans-Serif" font-size="10.00">_show_emergency_mailbox</text>
</a>
</g>
</g>
<!-- Node2&#45;&gt;Node21 -->
<g id="edge20_Node000002_Node000021" class="edge">
<title>Node2&#45;&gt;Node21</title>
<g id="a_edge20_Node000002_Node000021"><a xlink:title=" ">
<path fill="none" stroke="#63b8ff" d="M354.15,-351.89C358.12,-349.27 361.8,-346.24 365,-342.75 413.7,-289.69 351.86,-237.41 401,-184.75 401.72,-183.98 402.47,-183.22 403.23,-182.49"/>
<polygon fill="#63b8ff" stroke="#63b8ff" points="405.25,-185.36 410.95,-176.43 400.92,-179.86 405.25,-185.36"/>
</a>
</g>
</g>
<!-- Node22 -->
<g id="Node000022" class="node">
<title>Node22</title>
<g id="a_Node000022"><a xlink:href="namespaceaxe.html#a557557e18d17b8fa824f16fd344efdcf" target="_top" xlink:title=" ">
<polygon fill="white" stroke="#666666" points="564,-357.12 412.25,-357.12 412.25,-336.38 564,-336.38 564,-357.12"/>
<text xml:space="preserve" text-anchor="middle" x="488.12" y="-343.62" font-family="Helvetica,sans-Serif" font-size="10.00">axe.check_agent_command</text>
</a>
</g>
</g>
<!-- Node2&#45;&gt;Node22 -->
<g id="edge22_Node000002_Node000022" class="edge">
<title>Node2&#45;&gt;Node22</title>
<g id="a_edge22_Node000002_Node000022"><a xlink:title=" ">
<path fill="none" stroke="#63b8ff" d="M354.02,-361.15C369.08,-359.52 385.16,-357.78 400.75,-356.09"/>
<polygon fill="#63b8ff" stroke="#63b8ff" points="400.92,-359.6 410.49,-355.04 400.17,-352.64 400.92,-359.6"/>
</a>
</g>
</g>
<!-- Node23 -->
<g id="Node000023" class="node">
<title>Node23</title>
<g id="a_Node000023"><a xlink:href="namespaceaxe.html#a24106f38d1e2278a094b572012ed4760" target="_top" xlink:title=" ">
<polygon fill="white" stroke="#666666" points="550.88,-318.12 425.38,-318.12 425.38,-297.38 550.88,-297.38 550.88,-318.12"/>
<text xml:space="preserve" text-anchor="middle" x="488.12" y="-304.62" font-family="Helvetica,sans-Serif" font-size="10.00">axe.check_agent_pass</text>
</a>
</g>
</g>
<!-- Node2&#45;&gt;Node23 -->
<g id="edge24_Node000002_Node000023" class="edge">
<title>Node2&#45;&gt;Node23</title>
<g id="a_edge24_Node000002_Node000023"><a xlink:title=" ">
<path fill="none" stroke="#63b8ff" d="M339.47,-351.61C348.06,-348.77 356.8,-345.76 365,-342.75 381.27,-336.77 384.5,-333.06 401,-327.75 408.17,-325.44 415.75,-323.29 423.32,-321.31"/>
<polygon fill="#63b8ff" stroke="#63b8ff" points="424.05,-324.73 432.9,-318.9 422.35,-317.94 424.05,-324.73"/>
</a>
</g>
</g>
<!-- Node24 -->
<g id="Node000024" class="node">
<title>Node24</title>
<g id="a_Node000024"><a xlink:href="namespaceaxe.html#a6219e4e9c2c63cebb97122848b591a70" target="_top" xlink:title=" ">
<polygon fill="white" stroke="#666666" points="550.12,-33.5 426.12,-33.5 426.12,0 550.12,0 550.12,-33.5"/>
<text xml:space="preserve" text-anchor="start" x="434.12" y="-20" font-family="Helvetica,sans-Serif" font-size="10.00">axe.check_agent_task</text>
<text xml:space="preserve" text-anchor="middle" x="488.12" y="-7.25" font-family="Helvetica,sans-Serif" font-size="10.00">_complete</text>
</a>
</g>
</g>
<!-- Node2&#45;&gt;Node24 -->
<g id="edge26_Node000002_Node000024" class="edge">
<title>Node2&#45;&gt;Node24</title>
<g id="a_edge26_Node000002_Node000024"><a xlink:title=" ">
<path fill="none" stroke="#63b8ff" d="M354.2,-352.51C358.22,-349.74 361.88,-346.52 365,-342.75 449.2,-240.99 318.63,-151 401,-47.75 405.19,-42.5 410.35,-38.13 416.03,-34.51"/>
<polygon fill="#63b8ff" stroke="#63b8ff" points="417.58,-37.65 424.7,-29.8 414.24,-31.5 417.58,-37.65"/>
</a>
</g>
</g>
<!-- Node3&#45;&gt;Node4 -->
<g id="edge3_Node000003_Node000004" class="edge">
<title>Node3&#45;&gt;Node4</title>
<g id="a_edge3_Node000003_Node000004"><a xlink:title=" ">
<path fill="none" stroke="#63b8ff" d="M559.47,-734.44C581.57,-732.15 606.15,-729.59 628.95,-727.22"/>
<polygon fill="#63b8ff" stroke="#63b8ff" points="629.24,-730.71 638.83,-726.2 628.52,-723.75 629.24,-730.71"/>
</a>
</g>
</g>
<!-- Node8&#45;&gt;Node9 -->
<g id="edge8_Node000008_Node000009" class="edge">
<title>Node8&#45;&gt;Node9</title>
<g id="a_edge8_Node000008_Node000009"><a xlink:title=" ">
<path fill="none" stroke="#63b8ff" d="M559.47,-106.75C583.19,-106.75 609.77,-106.75 633.94,-106.75"/>
<polygon fill="#63b8ff" stroke="#63b8ff" points="633.71,-110.25 643.71,-106.75 633.71,-103.25 633.71,-110.25"/>
</a>
</g>
</g>
<!-- Node12 -->
<g id="Node000012" class="node">
<title>Node12</title>
<g id="a_Node000012"><a xlink:href="classaxe_1_1CollaborativeSession.html#a05dff6155ae4caa7d185d656765b2245" target="_top" xlink:title=" ">
<polygon fill="white" stroke="#666666" points="782.5,-564.5 640.5,-564.5 640.5,-531 782.5,-531 782.5,-564.5"/>
<text xml:space="preserve" text-anchor="start" x="648.5" y="-551" font-family="Helvetica,sans-Serif" font-size="10.00">axe.CollaborativeSession.</text>
<text xml:space="preserve" text-anchor="middle" x="711.5" y="-538.25" font-family="Helvetica,sans-Serif" font-size="10.00">_get_changed_files</text>
</a>
</g>
</g>
<!-- Node11&#45;&gt;Node12 -->
<g id="edge11_Node000011_Node000012" class="edge">
<title>Node11&#45;&gt;Node12</title>
<g id="a_edge11_Node000011_Node000012"><a xlink:title=" ">
<path fill="none" stroke="#63b8ff" d="M562.53,-512.99C583.96,-518.03 607.49,-523.55 629.37,-528.69"/>
<polygon fill="#63b8ff" stroke="#63b8ff" points="628.29,-532.03 638.82,-530.91 629.89,-525.22 628.29,-532.03"/>
</a>
</g>
</g>
<!-- Node13 -->
<g id="Node000013" class="node">
<title>Node13</title>
<g id="a_Node000013"><a xlink:href="classaxe_1_1CollaborativeSession.html#ad62f87765c49218f37f833f403a9d5e2" target="_top" xlink:title=" ">
<polygon fill="white" stroke="#666666" points="782.5,-512.5 640.5,-512.5 640.5,-479 782.5,-479 782.5,-512.5"/>
<text xml:space="preserve" text-anchor="start" x="648.5" y="-499" font-family="Helvetica,sans-Serif" font-size="10.00">axe.CollaborativeSession.</text>
<text xml:space="preserve" text-anchor="middle" x="711.5" y="-486.25" font-family="Helvetica,sans-Serif" font-size="10.00">_github_review_prompt</text>
</a>
</g>
</g>
<!-- Node11&#45;&gt;Node13 -->
<g id="edge12_Node000011_Node000013" class="edge">
<title>Node11&#45;&gt;Node13</title>
<g id="a_edge12_Node000011_Node000013"><a xlink:title=" ">
<path fill="none" stroke="#63b8ff" d="M569.99,-495.75C589.1,-495.75 609.5,-495.75 628.66,-495.75"/>
<polygon fill="#63b8ff" stroke="#63b8ff" points="628.57,-499.25 638.57,-495.75 628.57,-492.25 628.57,-499.25"/>
</a>
</g>
</g>
<!-- Node14 -->
<g id="Node000014" class="node">
<title>Node14</title>
<g id="a_Node000014"><a xlink:href="classaxe_1_1CollaborativeSession.html#a909e359216e70f696e6a51f60a24be7d" target="_top" xlink:title=" ">
<polygon fill="white" stroke="#666666" points="989.75,-538.5 847.75,-538.5 847.75,-505 989.75,-505 989.75,-538.5"/>
<text xml:space="preserve" text-anchor="start" x="855.75" y="-525" font-family="Helvetica,sans-Serif" font-size="10.00">axe.CollaborativeSession.</text>
<text xml:space="preserve" text-anchor="middle" x="918.75" y="-512.25" font-family="Helvetica,sans-Serif" font-size="10.00">_approve_and_push</text>
</a>
</g>
</g>
<!-- Node13&#45;&gt;Node14 -->
<g id="edge13_Node000013_Node000014" class="edge">
<title>Node13&#45;&gt;Node14</title>
<g id="a_edge13_Node000013_Node000014"><a xlink:title=" ">
<path fill="none" stroke="#63b8ff" d="M782.85,-504.66C800.06,-506.84 818.63,-509.19 836.32,-511.43"/>
<polygon fill="#63b8ff" stroke="#63b8ff" points="835.63,-514.88 845.99,-512.66 836.51,-507.93 835.63,-514.88"/>
</a>
</g>
</g>
<!-- Node16 -->
<g id="Node000016" class="node">
<title>Node16</title>
<g id="a_Node000016"><a xlink:href="classaxe_1_1CollaborativeSession.html#ab23535e0d366c892f663caf9b9929bed" target="_top" xlink:title=" ">
<polygon fill="white" stroke="#666666" points="989.75,-486.5 847.75,-486.5 847.75,-453 989.75,-453 989.75,-486.5"/>
<text xml:space="preserve" text-anchor="start" x="855.75" y="-473" font-family="Helvetica,sans-Serif" font-size="10.00">axe.CollaborativeSession.</text>
<text xml:space="preserve" text-anchor="middle" x="918.75" y="-460.25" font-family="Helvetica,sans-Serif" font-size="10.00">_reject_and_continue</text>
</a>
</g>
</g>
<!-- Node13&#45;&gt;Node16 -->
<g id="edge15_Node000013_Node000016" class="edge">
<title>Node13&#45;&gt;Node16</title>
<g id="a_edge15_Node000013_Node000016"><a xlink:title=" ">
<path fill="none" stroke="#63b8ff" d="M782.85,-486.84C800.06,-484.66 818.63,-482.31 836.32,-480.07"/>
<polygon fill="#63b8ff" stroke="#63b8ff" points="836.51,-483.57 845.99,-478.84 835.63,-476.62 836.51,-483.57"/>
</a>
</g>
</g>
<!-- Node15 -->
<g id="Node000015" class="node">
<title>Node15</title>
<g id="a_Node000015"><a xlink:href="classaxe_1_1CollaborativeSession.html#ad553b84eeef4e00b661e60f07e20ea1f" target="_top" xlink:title=" ">
<polygon fill="white" stroke="#666666" points="1167.75,-538.5 1025.75,-538.5 1025.75,-505 1167.75,-505 1167.75,-538.5"/>
<text xml:space="preserve" text-anchor="start" x="1033.75" y="-525" font-family="Helvetica,sans-Serif" font-size="10.00">axe.CollaborativeSession.</text>
<text xml:space="preserve" text-anchor="middle" x="1096.75" y="-512.25" font-family="Helvetica,sans-Serif" font-size="10.00">_create_pr_with_gh_cli</text>
</a>
</g>
</g>
<!-- Node14&#45;&gt;Node15 -->
<g id="edge14_Node000014_Node000015" class="edge">
<title>Node14&#45;&gt;Node15</title>
<g id="a_edge14_Node000014_Node000015"><a xlink:title=" ">
<path fill="none" stroke="#63b8ff" d="M990.07,-521.75C997.94,-521.75 1006.01,-521.75 1014.02,-521.75"/>
<polygon fill="#63b8ff" stroke="#63b8ff" points="1013.74,-525.25 1023.74,-521.75 1013.74,-518.25 1013.74,-525.25"/>
</a>
</g>
</g>
<!-- Node18 -->
<g id="Node000018" class="node">
<title>Node18</title>
<g id="a_Node000018"><a xlink:href="classaxe_1_1CollaborativeSession.html#a38db2f20ab1aba56ecbe35c99c7ccfd2" target="_top" xlink:title=" ">
<polygon fill="white" stroke="#666666" points="811.75,-460.5 611.25,-460.5 611.25,-427 811.75,-427 811.75,-460.5"/>
<text xml:space="preserve" text-anchor="start" x="619.25" y="-447" font-family="Helvetica,sans-Serif" font-size="10.00">axe.CollaborativeSession.</text>
<text xml:space="preserve" text-anchor="middle" x="711.5" y="-434.25" font-family="Helvetica,sans-Serif" font-size="10.00">_get_spawned_agent_system_prompt</text>
</a>
</g>
</g>
<!-- Node17&#45;&gt;Node18 -->
<g id="edge17_Node000017_Node000018" class="edge">
<title>Node17&#45;&gt;Node18</title>
<g id="a_edge17_Node000017_Node000018"><a xlink:title=" ">
<path fill="none" stroke="#63b8ff" d="M559.47,-443.75C572.23,-443.75 585.82,-443.75 599.42,-443.75"/>
<polygon fill="#63b8ff" stroke="#63b8ff" points="599.31,-447.25 609.31,-443.75 599.31,-440.25 599.31,-447.25"/>
</a>
</g>
</g>
<!-- Node22&#45;&gt;Node9 -->
<g id="edge23_Node000022_Node000009" class="edge">
<title>Node22&#45;&gt;Node9</title>
<g id="a_edge23_Node000022_Node000009"><a xlink:title=" ">
<path fill="none" stroke="#63b8ff" d="M558.52,-335.9C564.46,-333.44 570.14,-330.43 575.25,-326.75 646.92,-275.17 688.36,-172.75 703.67,-128.24"/>
<polygon fill="#63b8ff" stroke="#63b8ff" points="706.92,-129.57 706.75,-118.97 700.27,-127.36 706.92,-129.57"/>
</a>
</g>
</g>
<!-- Node23&#45;&gt;Node9 -->
<g id="edge25_Node000023_Node000009" class="edge">
<title>Node23&#45;&gt;Node9</title>
<g id="a_edge25_Node000023_Node000009"><a xlink:title=" ">
<path fill="none" stroke="#63b8ff" d="M551.06,-299.75C559.59,-297.06 567.92,-293.49 575.25,-288.75 638.72,-247.67 683.07,-165.8 701.28,-127.46"/>
<polygon fill="#63b8ff" stroke="#63b8ff" points="704.25,-129.38 705.26,-118.83 697.89,-126.45 704.25,-129.38"/>
</a>
</g>
</g>
<!-- Node24&#45;&gt;Node9 -->
<g id="edge27_Node000024_Node000009" class="edge">
<title>Node24&#45;&gt;Node9</title>
<g id="a_edge27_Node000024_Node000009"><a xlink:title=" ">
<path fill="none" stroke="#63b8ff" d="M538.52,-33.9C550.6,-38.26 563.44,-43.05 575.25,-47.75 610.35,-61.7 649.88,-79.15 677.09,-91.44"/>
<polygon fill="#63b8ff" stroke="#63b8ff" points="675.31,-94.48 685.86,-95.42 678.2,-88.1 675.31,-94.48"/>
</a>
</g>
</g>
<!-- Node25 -->
<g id="Node000025" class="node">
<title>Node25</title>
<g id="a_Node000025"><a xlink:href="namespaceaxe.html#aed941049819dac642905b812e754e2fa" target="_top" xlink:title=" ">
<polygon fill="white" stroke="#666666" points="769,-33.5 654,-33.5 654,0 769,0 769,-33.5"/>
<text xml:space="preserve" text-anchor="start" x="662" y="-20" font-family="Helvetica,sans-Serif" font-size="10.00">axe.is_genuine_task</text>
<text xml:space="preserve" text-anchor="middle" x="711.5" y="-7.25" font-family="Helvetica,sans-Serif" font-size="10.00">_completion</text>
</a>
</g>
</g>
<!-- Node24&#45;&gt;Node25 -->
<g id="edge28_Node000024_Node000025" class="edge">
<title>Node24&#45;&gt;Node25</title>
<g id="a_edge28_Node000024_Node000025"><a xlink:title=" ">
<path fill="none" stroke="#63b8ff" d="M550.5,-16.75C578.96,-16.75 612.9,-16.75 642.18,-16.75"/>
<polygon fill="#63b8ff" stroke="#63b8ff" points="642.06,-20.25 652.06,-16.75 642.06,-13.25 642.06,-20.25"/>
</a>
</g>
</g>
</g>
</svg>
