<?xml version="1.0" encoding="UTF-8" standalone="no"?>
<!DOCTYPE svg PUBLIC "-//W3C//DTD SVG 1.1//EN"
 "http://www.w3.org/Graphics/SVG/1.1/DTD/svg11.dtd">
<!-- Generated by graphviz version 14.0.5 (20251129.0259)
 -->
<!-- Title: core.sandbox.SandboxManager.is_available Pages: 1 -->
<svg width="423pt" height="80pt"
 viewBox="0.00 0.00 423.00 80.00" xmlns="http://www.w3.org/2000/svg" xmlns:xlink="http://www.w3.org/1999/xlink">
<g id="graph0" class="graph" transform="scale(1 1) rotate(0) translate(4 76.12)">
<title>core.sandbox.SandboxManager.is_available</title>
<!-- Node1 -->
<g id="Node000001" class="node">
<title>Node1</title>
<g id="a_Node000001"><a xlink:title=" ">
<polygon fill="#999999" stroke="#666666" points="415.25,-49.12 235.75,-49.12 235.75,-15.62 415.25,-15.62 415.25,-49.12"/>
<text xml:space="preserve" text-anchor="start" x="243.75" y="-35.62" font-family="Helvetica,sans-Serif" font-size="10.00">core.sandbox.SandboxManager.is</text>
<text xml:space="preserve" text-anchor="middle" x="325.5" y="-22.88" font-family="Helvetica,sans-Serif" font-size="10.00">_available</text>
</a>
</g>
</g>
<!-- Node2 -->
<g id="Node000002" class="node">
<title>Node2</title>
<g id="a_Node000002"><a xlink:href="classcore_1_1sandbox_1_1SandboxManager.html#a11837b6ba86746dc0c5400111b54d26f" target="_top" xlink:title=" ">
<polygon fill="white" stroke="#666666" points="199.75,-72.12 0,-72.12 0,-38.62 199.75,-38.62 199.75,-72.12"/>
<text xml:space="preserve" text-anchor="start" x="8" y="-58.62" font-family="Helvetica,sans-Serif" font-size="10.00">core.sandbox.SandboxManager.check</text>
<text xml:space="preserve" text-anchor="middle" x="99.88" y="-45.88" font-family="Helvetica,sans-Serif" font-size="10.00">_capability</text>
</a>
</g>
</g>
<!-- Node1&#45;&gt;Node2 -->
<g id="edge1_Node000001_Node000002" class="edge">
<title>Node1&#45;&gt;Node2</title>
<g id="a_edge1_Node000001_Node000002"><a xlink:title=" ">
<path fill="none" stroke="#63b8ff" d="M224.15,-42.7C216.09,-43.53 207.95,-44.36 199.9,-45.19"/>
<polygon fill="#63b8ff" stroke="#63b8ff" points="224.38,-46.19 233.97,-41.69 223.66,-39.23 224.38,-46.19"/>
</a>
</g>
</g>
<!-- Node3 -->
<g id="Node000003" class="node">
<title>Node3</title>
<g id="a_Node000003"><a xlink:href="classcore_1_1sandbox_1_1SandboxManager.html#ae2afdf199a31e056780d21e8442d9ddf" target="_top" xlink:title=" ">
<polygon fill="white" stroke="#666666" points="193.38,-20.75 6.38,-20.75 6.38,0 193.38,0 193.38,-20.75"/>
<text xml:space="preserve" text-anchor="middle" x="99.88" y="-7.25" font-family="Helvetica,sans-Serif" font-size="10.00">core.sandbox.SandboxManager.run</text>
</a>
</g>
</g>
<!-- Node1&#45;&gt;Node3 -->
<g id="edge2_Node000001_Node000003" class="edge">
<title>Node1&#45;&gt;Node3</title>
<g id="a_edge2_Node000001_Node000003"><a xlink:title=" ">
<path fill="none" stroke="#63b8ff" d="M224.09,-22.5C213.95,-21.5 203.68,-20.49 193.62,-19.5"/>
<polygon fill="#63b8ff" stroke="#63b8ff" points="223.67,-25.97 233.97,-23.47 224.36,-19.01 223.67,-25.97"/>
</a>
</g>
</g>
</g>
</svg>
