<?xml version="1.0" encoding="UTF-8" standalone="no"?>
<!DOCTYPE svg PUBLIC "-//W3C//DTD SVG 1.1//EN"
 "http://www.w3.org/Graphics/SVG/1.1/DTD/svg11.dtd">
<!-- Generated by graphviz version 14.0.5 (20251129.0259)
 -->
<!-- Title: axe.ChatSession.run Pages: 1 -->
<svg width="464pt" height="65pt"
 viewBox="0.00 0.00 464.00 65.00" xmlns="http://www.w3.org/2000/svg" xmlns:xlink="http://www.w3.org/1999/xlink">
<g id="graph0" class="graph" transform="scale(1 1) rotate(0) translate(4 60.5)">
<title>axe.ChatSession.run</title>
<!-- Node1 -->
<g id="Node000001" class="node">
<title>Node1</title>
<g id="a_Node000001"><a xlink:title=" ">
<polygon fill="#999999" stroke="#666666" points="456,-50.12 341,-50.12 341,-29.38 456,-29.38 456,-50.12"/>
<text xml:space="preserve" text-anchor="middle" x="398.5" y="-36.62" font-family="Helvetica,sans-Serif" font-size="10.00">axe.ChatSession.run</text>
</a>
</g>
</g>
<!-- Node2 -->
<g id="Node000002" class="node">
<title>Node2</title>
<g id="a_Node000002"><a xlink:href="classaxe_1_1ChatSession.html#aaa359a2981c69ef0b93b8b48e259e007" target="_top" xlink:title=" ">
<polygon fill="white" stroke="#666666" points="305,-56.5 168.25,-56.5 168.25,-23 305,-23 305,-56.5"/>
<text xml:space="preserve" text-anchor="start" x="176.25" y="-43" font-family="Helvetica,sans-Serif" font-size="10.00">axe.ChatSession.process</text>
<text xml:space="preserve" text-anchor="middle" x="236.62" y="-30.25" font-family="Helvetica,sans-Serif" font-size="10.00">_command</text>
</a>
</g>
</g>
<!-- Node1&#45;&gt;Node2 -->
<g id="edge1_Node000001_Node000002" class="edge">
<title>Node1&#45;&gt;Node2</title>
<g id="a_edge1_Node000001_Node000002"><a xlink:title=" ">
<path fill="none" stroke="#63b8ff" d="M329.28,-33.06C321.39,-32.98 313.35,-32.98 305.47,-33.07"/>
<polygon fill="#63b8ff" stroke="#63b8ff" points="329.11,-36.56 339.17,-33.23 329.23,-29.56 329.11,-36.56"/>
</a>
</g>
</g>
<!-- Node2&#45;&gt;Node1 -->
<g id="edge4_Node000002_Node000001" class="edge">
<title>Node2&#45;&gt;Node1</title>
<g id="a_edge4_Node000002_Node000001"><a xlink:title=" ">
<path fill="none" stroke="#63b8ff" d="M316.82,-46.5C324.87,-46.51 332.94,-46.42 340.68,-46.24"/>
<polygon fill="#63b8ff" stroke="#63b8ff" points="317.01,-43 306.99,-46.44 316.96,-50 317.01,-43"/>
</a>
</g>
</g>
<!-- Node3 -->
<g id="Node000003" class="node">
<title>Node3</title>
<g id="a_Node000003"><a xlink:href="classaxe_1_1ChatSession.html#a00f4c50861d88ce623a2c2db3ba0bd0b" target="_top" xlink:title=" ">
<polygon fill="white" stroke="#666666" points="132.25,-33.5 0,-33.5 0,0 132.25,0 132.25,-33.5"/>
<text xml:space="preserve" text-anchor="start" x="8" y="-20" font-family="Helvetica,sans-Serif" font-size="10.00">axe.ChatSession.handle</text>
<text xml:space="preserve" text-anchor="middle" x="66.12" y="-7.25" font-family="Helvetica,sans-Serif" font-size="10.00">_socket_command</text>
</a>
</g>
</g>
<!-- Node2&#45;&gt;Node3 -->
<g id="edge2_Node000002_Node000003" class="edge">
<title>Node2&#45;&gt;Node3</title>
<g id="a_edge2_Node000002_Node000003"><a xlink:title=" ">
<path fill="none" stroke="#63b8ff" d="M156.69,-28.98C148.6,-27.87 140.44,-26.76 132.51,-25.68"/>
<polygon fill="#63b8ff" stroke="#63b8ff" points="156.18,-32.44 166.56,-30.32 157.13,-25.5 156.18,-32.44"/>
</a>
</g>
</g>
<!-- Node3&#45;&gt;Node1 -->
<g id="edge3_Node000003_Node000001" class="edge">
<title>Node3&#45;&gt;Node1</title>
<g id="a_edge3_Node000003_Node000001"><a xlink:title=" ">
<path fill="none" stroke="#63b8ff" d="M143.84,-10C190.63,-7.32 251.52,-6.38 305,-13.75 326.15,-16.67 349.28,-23.17 367.11,-28.94"/>
<polygon fill="#63b8ff" stroke="#63b8ff" points="143.85,-6.49 134.08,-10.6 144.28,-13.48 143.85,-6.49"/>
</a>
</g>
</g>
</g>
</svg>
